<svg id="Logo" xmlns="http://www.w3.org/2000/svg" viewBox="0 0 405.41 90.16">
  <title>logo_CLion</title>
  <g>
    <g>
      <rect y="3.67" width="85.04" height="85.04"/>
      <path d="M254.86,179.95v-0.06A10.89,10.89,0,0,1,266,168.81a11.05,11.05,0,0,1,8.45,3.31l-3,3.46a7.91,7.91,0,0,0-5.48-2.42c-3.61,0-6.21,3-6.21,6.67v0.06c0,3.67,2.54,6.73,6.21,6.73,2.45,0,3.95-1,5.63-2.51l3,3a11,11,0,0,1-8.78,3.83,10.82,10.82,0,0,1-11-11" transform="translate(-247.29 -154.92)" fill="#fff"/>
      <path d="M277.88,169.16h4.72v17.43H292v4H277.88V169.16Z" transform="translate(-247.29 -154.92)" fill="#fff"/>
      <rect x="7.97" y="72.77" width="31.89" height="5.31" fill="#fff"/>
    </g>
    <g>
      <path d="M352.73,201.34v-0.24c0-24.18,18.23-44,44.35-44,16,0,25.64,5.35,33.54,13.12L418.7,184c-6.56-6-13.24-9.6-21.75-9.6-14.34,0-24.67,11.91-24.67,26.49v0.24c0,14.58,10.08,26.73,24.67,26.73,9.72,0,15.67-3.89,22.36-10l11.91,12c-8.75,9.36-18.47,15.19-34.87,15.19C371.32,245.08,352.73,225.76,352.73,201.34Z" transform="translate(-247.29 -154.92)"/>
      <path d="M434.74,158.57h18.71v68h42.41v17H434.74V158.57Z" transform="translate(-247.29 -154.92)"/>
      <path d="M498.4,154.92h19.44v16.4H498.4v-16.4Zm0.49,23.57h18.47v65.13H498.89V178.49Z" transform="translate(-247.29 -154.92)"/>
      <path d="M519.78,211.42v-0.24c0-18.71,15.07-33.9,35.36-33.9s35.12,14.95,35.12,33.66v0.24c0,18.71-15.07,33.9-35.36,33.9S519.78,230.13,519.78,211.42Zm52.25,0v-0.24c0-9.6-6.93-18-17.13-18-10.57,0-16.89,8.14-16.89,17.74v0.24c0,9.6,6.93,18,17.13,18C565.71,229.16,572,221,572,211.42Z" transform="translate(-247.29 -154.92)"/>
      <path d="M593,178.49h18.47v9.23c4.25-5.47,9.72-10.45,19.08-10.45,14,0,22.11,9.23,22.11,24.18v42.16H634.24V207.29c0-8.75-4.13-13.24-11.18-13.24s-11.54,4.5-11.54,13.24v36.33H593V178.49Z" transform="translate(-247.29 -154.92)"/>
    </g>
  </g>
</svg>
